<svg xmlns="http://www.w3.org/2000/svg" viewBox="114 630 330 330"><path d="M 212 715 C 197 718, 194 734, 205 748 C 207 751, 210 755, 211 757 C 212 760, 216 764, 219 767 C 222 771, 225 775, 226 777 C 228 779, 231 783, 233 787 C 239 797, 238 803, 226 817 C 222 820, 218 825, 217 828 C 216 830, 213 834, 211 837 C 197 854, 195 871, 205 879 C 208 881, 212 882, 217 879 C 220 878, 224 877, 227 876 C 230 875, 234 873, 238 870 C 241 868, 245 865, 247 864 C 250 863, 254 860, 256 858 C 259 856, 263 853, 265 852 C 268 851, 272 848, 274 846 C 281 841, 284 841, 291 846 C 293 848, 297 851, 300 852 C 302 853, 306 856, 309 858 C 311 860, 315 863, 318 864 C 320 865, 324 868, 327 870 C 341 881, 350 883, 359 877 C 370 870, 368 855, 354 837 C 352 834, 349 830, 348 828 C 347 825, 344 821, 342 819 C 330 804, 328 794, 336 784 C 338 781, 341 778, 342 775 C 343 773, 346 769, 348 766 C 354 758, 366 734, 366 729 C 366 720, 359 715, 346 715 C 335 715, 333 716, 325 723 C 321 727, 315 731, 313 733 C 310 734, 305 737, 303 739 C 288 751, 278 753, 268 745 C 265 743, 261 740, 258 739 C 256 737, 250 733, 246 730 C 234 719, 222 713, 212 715 Z" fill="#fff" fill-rule="evenodd" stroke="#fff" stroke-width="64" stroke-linejoin="round"/><path d="M 212 715 C 197 718, 194 734, 205 748 C 207 751, 210 755, 211 757 C 212 760, 216 764, 219 767 C 222 771, 225 775, 226 777 C 228 779, 231 783, 233 787 C 239 797, 238 803, 226 817 C 222 820, 218 825, 217 828 C 216 830, 213 834, 211 837 C 197 854, 195 871, 205 879 C 208 881, 212 882, 217 879 C 220 878, 224 877, 227 876 C 230 875, 234 873, 238 870 C 241 868, 245 865, 247 864 C 250 863, 254 860, 256 858 C 259 856, 263 853, 265 852 C 268 851, 272 848, 274 846 C 281 841, 284 841, 291 846 C 293 848, 297 851, 300 852 C 302 853, 306 856, 309 858 C 311 860, 315 863, 318 864 C 320 865, 324 868, 327 870 C 341 881, 350 883, 359 877 C 370 870, 368 855, 354 837 C 352 834, 349 830, 348 828 C 347 825, 344 821, 342 819 C 330 804, 328 794, 336 784 C 338 781, 341 778, 342 775 C 343 773, 346 769, 348 766 C 354 758, 366 734, 366 729 C 366 720, 359 715, 346 715 C 335 715, 333 716, 325 723 C 321 727, 315 731, 313 733 C 310 734, 305 737, 303 739 C 288 751, 278 753, 268 745 C 265 743, 261 740, 258 739 C 256 737, 250 733, 246 730 C 234 719, 222 713, 212 715 Z" fill="#975397" fill-rule="evenodd"/><path d="M 333 743 C 329 746, 323 749, 320 752 C 317 754, 313 757, 311 758 C 309 758, 305 761, 303 763 C 286 777, 277 777, 263 765 C 260 762, 256 758, 254 758 C 252 757, 248 754, 244 751 C 228 740, 220 742, 230 755 C 232 758, 234 762, 235 764 C 236 765, 239 770, 242 773 C 257 795, 258 799, 247 813 C 245 815, 242 820, 241 823 C 239 825, 235 831, 232 835 C 225 842, 216 857, 217 859 C 219 864, 230 859, 240 850 C 244 846, 250 842, 252 840 C 255 839, 260 836, 263 834 C 269 829, 279 824, 283 824 C 288 824, 299 830, 307 837 C 310 841, 315 845, 317 845 C 319 846, 323 849, 326 851 C 339 861, 341 853, 330 837 C 327 833, 324 829, 323 827 C 323 825, 319 821, 316 818 C 305 805, 304 800, 312 790 C 314 787, 317 783, 318 780 C 320 778, 324 772, 327 769 C 330 765, 334 760, 336 758 C 337 755, 340 750, 342 747 C 348 738, 345 737, 333 743 Z" fill="#FCD871" fill-rule="evenodd"/></svg>